<svg xmlns="http://www.w3.org/2000/svg" version="1.1" xmlns:xlink="http://www.w3.org/1999/xlink" xmlns:svgjs="http://svgjs.dev/svgjs" viewBox="0 0 800 800" opacity="0.18"><defs><filter id="bbburst-blur-1" x="-100%" y="-100%" width="400%" height="400%"><feGaussianBlur in="SourceGraphic" stdDeviation="1"></feGaussianBlur></filter><filter id="bbburst-blur-2" x="-100%" y="-100%" width="400%" height="400%"><feGaussianBlur in="SourceGraphic" stdDeviation="2"></feGaussianBlur></filter><filter id="bbburst-blur-3" x="-100%" y="-100%" width="400%" height="400%"><feGaussianBlur in="SourceGraphic" stdDeviation="4"></feGaussianBlur></filter><filter id="bbburst-blur-4" x="-100%" y="-100%" width="400%" height="400%"><feGaussianBlur in="SourceGraphic" stdDeviation="12"></feGaussianBlur></filter><symbol id="bbburst-shape-1" viewBox="0 0 194 167"><path d="m97 0 96.129 166.5H.871L97 0Z"></path></symbol><symbol id="bbburst-shape-4" viewBox="0 0 149 143"><path d="M71.647 2.781c.898-2.764 4.808-2.764 5.706 0l15.445 47.534a3 3 0 0 0 2.853 2.073h49.98c2.906 0 4.115 3.719 1.764 5.427L106.96 87.193a2.999 2.999 0 0 0-1.09 3.354l15.445 47.534c.898 2.764-2.266 5.062-4.617 3.354l-40.435-29.378a3 3 0 0 0-3.526 0l-40.435 29.378c-2.351 1.708-5.515-.59-4.617-3.354L43.13 90.547a3 3 0 0 0-1.09-3.354L1.605 57.815c-2.35-1.708-1.142-5.427 1.764-5.427h49.98a3 3 0 0 0 2.853-2.073L71.647 2.781Z"></path></symbol><symbol id="bbburst-shape-5" viewBox="0 0 145 145"><circle cx="72.5" cy="72.5" r="72.5"></circle></symbol><symbol id="bbburst-shape-6" viewBox="0 0 133 116"><path d="M59.7487 10.2513c-13.6683-13.66839-35.8291-13.66839-49.4974 0-13.66839 13.6683-13.66839 35.8291 0 49.4974l49.4974-49.4974ZM66.5 66.5 41.7513 91.2487 66.5 115.997l24.7487-24.7483L66.5 66.5Zm56.249-6.7513c13.668-13.6683 13.668-35.8291 0-49.4974-13.669-13.66839-35.8294-13.66839-49.4977 0l49.4977 49.4974Zm-112.4977 0 31.5 31.5 49.4974-49.4974-31.5-31.5-49.4974 49.4974Zm80.9974 31.5 31.5003-31.5-49.4977-49.4974-31.5 31.5 49.4974 49.4974Z"></path></symbol><symbol id="bbburst-shape-8" viewBox="0 0 87 168"><path d="m12 12 31.2546 18.0749c16.4102 9.4902 20.014 31.6325 7.4603 45.8369L36.3296 92.1884c-12.5684 14.2206-8.9394 36.3916 7.5068 45.8636L75 156" stroke-width="14" stroke-linecap="round" stroke-linejoin="round"></path></symbol><symbol id="bbburst-shape-10" viewBox="0 0 145 145"><circle cx="72.5" cy="72.5" r="61.5" fill="none" stroke-width="22"></circle></symbol></defs><use xlink:href="#bbburst-shape-4" width="26.108282982629255" opacity="0.661477217117929" transform="matrix(0.7937773316288871,0.6082084739561953,-0.6082084739561953,0.7937773316288871,715.3654397790493,-53.520085916665664)" fill="#2c2891" filter="url(#bbburst-blur-1)"></use><use xlink:href="#bbburst-shape-4" width="25.67284699374506" opacity="0.6354314994259214" transform="matrix(0.8138336268016788,-0.5810979503378287,0.5810979503378287,0.8138336268016788,296.6604221159028,168.22866038421523)" fill="#ffbd9b" filter="url(#bbburst-blur-1)"></use><use xlink:href="#bbburst-shape-10" width="38.04239080514975" opacity="-0.07922465713804772" transform="matrix(1.6220112388821275,0.6569471370970925,-0.6569471370970925,1.6220112388821275,293.989269987511,-610.0920206956598)" fill="none" stroke="#ffbd9b" filter="url(#bbburst-blur-4)"></use><use xlink:href="#bbburst-shape-10" width="27.81257897839373" opacity="0.6261042902016871" transform="matrix(0.9872185031607829,0.1593726043490015,-0.1593726043490015,0.9872185031607829,388.73708635497553,-153.79905923663887)" fill="none" stroke="#ffbd9b" filter="url(#bbburst-blur-1)"></use><use xlink:href="#bbburst-shape-5" width="20.171665351650947" opacity="0.7724397195358079" transform="matrix(0.9872915452780057,-0.1589194910090252,0.1589194910090252,0.9872915452780057,264.40806344592454,-74.7628392716897)" fill="#2c2891" filter="url(#bbburst-blur-1)"></use><use xlink:href="#bbburst-shape-8" width="21.856270713791726" opacity="0.7999485536106704" transform="matrix(0.9994596092749815,-0.03287079901525595,0.03287079901525595,0.9994596092749815,417.853408940259,80.24059873985891)" fill="none" stroke="#2c2891"></use><use xlink:href="#bbburst-shape-10" width="33.00487167015478" opacity="0.3846348897169882" transform="matrix(0.990275516800562,-0.1391200949732993,0.1391200949732993,0.990275516800562,406.6810284872291,271.6896588873621)" fill="none" stroke="#ffa6d5" filter="url(#bbburst-blur-2)"></use><use xlink:href="#bbburst-shape-4" width="31.511474728136573" opacity="0.36059562078209617" transform="matrix(0.9308583068492643,0.365380366973543,-0.365380366973543,0.9308583068492643,361.1377573478774,253.82042576766946)" fill="#ff5c58" filter="url(#bbburst-blur-2)"></use><use xlink:href="#bbburst-shape-4" width="33.21501239577359" opacity="0.23263471783698553" transform="matrix(1.1689452886501959,0.442794435536977,-0.442794435536977,1.1689452886501959,719.6273828202957,230.09300815023778)" fill="#ffa6d5" filter="url(#bbburst-blur-3)"></use><use xlink:href="#bbburst-shape-8" width="44.86183355923113" opacity="0.32670103368984715" transform="matrix(1.1361265725245822,-0.5212642431661175,0.5212642431661175,1.1361265725245822,18.518145677579156,-307.4198598939812)" fill="none" stroke="#ffa6d5" filter="url(#bbburst-blur-3)"></use><use xlink:href="#bbburst-shape-10" width="33.55421155467275" opacity="0.4261770853781037" transform="matrix(0.7575830543868289,0.652738780605169,-0.652738780605169,0.7575830543868289,435.52715707304776,232.19734754502468)" fill="none" stroke="#ffa6d5" filter="url(#bbburst-blur-2)"></use><use xlink:href="#bbburst-shape-4" width="15.19169465783547" opacity="0.8997820463410989" transform="matrix(0.8882022611068977,0.45945265628200943,-0.45945265628200943,0.8882022611068977,585.5397459266784,-3.046154931278579)" fill="#ff5c58"></use><use xlink:href="#bbburst-shape-10" width="42.731160686662015" opacity="0.06325561293401305" transform="matrix(1.7280168922490144,-0.2765097106831109,0.2765097106831109,1.7280168922490144,-102.71895846521537,-58.30054818509484)" fill="none" stroke="#2c2891" filter="url(#bbburst-blur-4)"></use><use xlink:href="#bbburst-shape-4" width="19.68170895756245" opacity="0.6743357557210464" transform="matrix(0.9892509519129307,0.14622774750149373,-0.14622774750149373,0.9892509519129307,478.6943604387219,-140.57944718549533)" fill="#2c2891" filter="url(#bbburst-blur-1)"></use><use xlink:href="#bbburst-shape-6" width="46.09786799239507" opacity="0.21804117513979648" transform="matrix(1.0424420785542345,-0.6897930942387922,0.6897930942387922,1.0424420785542345,-164.4065161207199,231.04377897826458)" fill="#00a19d" filter="url(#bbburst-blur-3)"></use><use xlink:href="#bbburst-shape-5" width="53.72941735146949" opacity="0.1086844156072505" transform="matrix(1.7488622243361973,0.06309453454815493,-0.06309453454815493,1.7488622243361973,173.4586496703204,43.62701750264455)" fill="#00a19d" filter="url(#bbburst-blur-4)"></use><use xlink:href="#bbburst-shape-6" width="15.551315014906791" opacity="0.9489823517414496" transform="matrix(0.7582248454577588,-0.6519931623342057,0.6519931623342057,0.7582248454577588,113.43756106290925,90.27914705809718)" fill="#2c2891"></use><use xlink:href="#bbburst-shape-8" width="44.476979337210466" opacity="-0.07942651089709907" transform="matrix(1.5626940586260474,0.7877101491886795,-0.7877101491886795,1.5626940586260474,1027.034657825286,97.61444912522381)" fill="none" stroke="#2c2891" filter="url(#bbburst-blur-4)"></use><use xlink:href="#bbburst-shape-6" width="26.91743737248698" opacity="0.27060383021530343" transform="matrix(1.13841175454268,0.516254469345358,-0.516254469345358,1.13841175454268,596.5740141487888,-390.49643928651994)" fill="#2c2891" filter="url(#bbburst-blur-3)"></use><use xlink:href="#bbburst-shape-1" width="12.953141290904883" opacity="0.8993261807231465" transform="matrix(0.7601637647279673,-0.6497315220878571,0.6497315220878571,0.7601637647279673,154.96842039975326,140.91539625446552)" fill="#00a19d"></use><use xlink:href="#bbburst-shape-10" width="39.16609693078065" opacity="0.3960026303451525" transform="matrix(0.980117934970994,0.1984158097234048,-0.1984158097234048,0.980117934970994,724.8689428269035,-57.66165536138982)" fill="none" stroke="#ff5c58" filter="url(#bbburst-blur-2)"></use><use xlink:href="#bbburst-shape-10" width="16.659971385428346" opacity="0.7877681343529596" transform="matrix(0.9742827617095812,0.22532887128717327,-0.22532887128717327,0.9742827617095812,514.7072894661352,-81.32494595606681)" fill="none" stroke="#ffa6d5"></use><use xlink:href="#bbburst-shape-5" width="39.80606520088281" opacity="0.33129661456521164" transform="matrix(0.9275075112580287,0.8379915372842006,-0.8379915372842006,0.9275075112580287,478.8290083252985,-171.93911033556645)" fill="#ff5c58" filter="url(#bbburst-blur-3)"></use><use xlink:href="#bbburst-shape-8" width="12.90748621885049" opacity="0.8498783298671816" transform="matrix(0.8355521377897679,-0.549411162095337,0.549411162095337,0.8355521377897679,172.32105089846982,136.8325643327567)" fill="none" stroke="#00a19d"></use><use xlink:href="#bbburst-shape-10" width="48.00283839608156" opacity="-0.0646212827095276" transform="matrix(1.736657389769788,0.21568752990839993,-0.21568752990839993,1.736657389769788,111.40191485292847,44.40009216921271)" fill="none" stroke="#ff5c58" filter="url(#bbburst-blur-4)"></use><use xlink:href="#bbburst-shape-8" width="33.74691518053873" opacity="0.4218180108957382" transform="matrix(0.7301324971347082,-0.6833055953435735,0.6833055953435735,0.7301324971347082,326.2583428313306,-31.496203139638908)" fill="none" stroke="#00a19d" filter="url(#bbburst-blur-2)"></use><use xlink:href="#bbburst-shape-10" width="35.8913757586082" opacity="0.18274700196442728" transform="matrix(1.0794639787033635,0.6302836811166097,-0.6302836811166097,1.0794639787033635,897.0283132363534,212.6433447928307)" fill="none" stroke="#00a19d" filter="url(#bbburst-blur-3)"></use><use xlink:href="#bbburst-shape-5" width="18.220241537327002" opacity="0.8373949312079746" transform="matrix(0.9732273345275709,-0.22984463302056798,0.22984463302056798,0.9732273345275709,230.27297899451997,-11.769509938357771)" fill="#ffa6d5"></use><use xlink:href="#bbburst-shape-8" width="36.881977065185495" opacity="0.21505355144842142" transform="matrix(0.9263440346605256,0.8392775044339382,-0.8392775044339382,0.9263440346605256,1069.6374850074963,-25.525275913398332)" fill="none" stroke="#2c2891" filter="url(#bbburst-blur-3)"></use><use xlink:href="#bbburst-shape-5" width="36.746463503359585" opacity="0.4581186867008469" transform="matrix(0.8049148832092543,-0.5933902853841074,0.5933902853841074,0.8049148832092543,137.3515721545278,332.55682896653343)" fill="#2c2891" filter="url(#bbburst-blur-2)"></use><use xlink:href="#bbburst-shape-4" width="25.894062188024627" opacity="0.18003965140494116" transform="matrix(1.249119852058202,-0.046899842154266375,0.046899842154266375,1.249119852058202,729.2582199323549,-39.733846259851816)" fill="#00a19d" filter="url(#bbburst-blur-3)"></use><use xlink:href="#bbburst-shape-10" width="31.994192944814444" opacity="0.13047008230192159" transform="matrix(1.1237977519383704,-0.5473377501490873,0.5473377501490873,1.1237977519383704,526.8857720427577,-184.83758041354605)" fill="none" stroke="#ffa6d5" filter="url(#bbburst-blur-3)"></use><use xlink:href="#bbburst-shape-6" width="13.896076903652698" opacity="0.8483790141761022" transform="matrix(0.9110452298028212,0.4123064264033787,-0.4123064264033787,0.9110452298028212,615.9605081861182,69.6520090351583)" fill="#2c2891"></use><use xlink:href="#bbburst-shape-10" width="22.95602214373677" opacity="0.5040527142795233" transform="matrix(0.9943819306175606,-0.10585167009212826,0.10585167009212826,0.9943819306175606,267.4337514180193,212.25948667658827)" fill="none" stroke="#00a19d" filter="url(#bbburst-blur-2)"></use><use xlink:href="#bbburst-shape-8" width="31.251036310619835" opacity="0.32669865084434013" transform="matrix(1.1528298299686273,-0.48320118287780106,0.48320118287780106,1.1528298299686273,367.197858820409,-298.41003777645494)" fill="none" stroke="#2c2891" filter="url(#bbburst-blur-3)"></use><use xlink:href="#bbburst-shape-6" width="14.527400944254772" opacity="0.8587323498685681" transform="matrix(0.9693108139275965,0.24583845509403204,-0.24583845509403204,0.9693108139275965,536.9406581871425,-33.75502508865827)" fill="#ffa6d5"></use><use xlink:href="#bbburst-shape-10" width="44.428995145226345" opacity="0.11150016049296563" transform="matrix(1.2497824896194023,0.02331798963736765,-0.02331798963736765,1.2497824896194023,577.6023829989412,-448.89747208216875)" fill="none" stroke="#ff5c58" filter="url(#bbburst-blur-3)"></use><use xlink:href="#bbburst-shape-10" width="22.285227928248045" opacity="0.6014999889615251" transform="matrix(0.9875415078657361,0.15735873106462273,-0.15735873106462273,0.9875415078657361,309.28523270601977,111.89075339581535)" fill="none" stroke="#00a19d" filter="url(#bbburst-blur-1)"></use><use xlink:href="#bbburst-shape-6" width="33.54070530490439" opacity="0.19484947176388612" transform="matrix(1.249976951609373,0.007590813219889221,-0.007590813219889221,1.249976951609373,301.23860127919977,-453.30285073939393)" fill="#2c2891" filter="url(#bbburst-blur-3)"></use><use xlink:href="#bbburst-shape-10" width="20.205874205818276" opacity="0.7744950386878697" transform="matrix(0.9916442091154951,0.12900295549988058,-0.12900295549988058,0.9916442091154951,542.1035201615696,15.93805328939294)" fill="none" stroke="#2c2891" filter="url(#bbburst-blur-1)"></use><use xlink:href="#bbburst-shape-8" width="29.714503591406682" opacity="0.6514352040851563" transform="matrix(0.9059917903365332,0.4232952584695501,-0.4232952584695501,0.9059917903365332,446.1255798736822,-80.76658301904996)" fill="none" stroke="#ffa6d5" filter="url(#bbburst-blur-1)"></use><use xlink:href="#bbburst-shape-10" width="31.764453838740067" opacity="0.5507722145289375" transform="matrix(0.9624264274889904,-0.2715425780071681,0.2715425780071681,0.9624264274889904,328.09304803092965,214.69334468315247)" fill="none" stroke="#ffbd9b" filter="url(#bbburst-blur-2)"></use><use xlink:href="#bbburst-shape-1" width="42.71820293938238" opacity="0.3981913275458113" transform="matrix(0.7499543833585813,0.6614895485805125,-0.6614895485805125,0.7499543833585813,390.78689077086983,2.8466427907333696)" fill="#ffbd9b" filter="url(#bbburst-blur-2)"></use><use xlink:href="#bbburst-shape-10" width="36.44427329136382" opacity="0.5950031340182943" transform="matrix(0.9039759298864218,0.42758334647876434,-0.42758334647876434,0.9039759298864218,374.20024921165066,4.453944792447771)" fill="none" stroke="#2c2891" filter="url(#bbburst-blur-1)"></use><use xlink:href="#bbburst-shape-4" width="37.35169886830801" opacity="0.06838534941425012" transform="matrix(1.4096512660725034,-1.037006898752457,1.037006898752457,1.4096512660725034,316.17858144462974,74.8877684372901)" fill="#2c2891" filter="url(#bbburst-blur-4)"></use><use xlink:href="#bbburst-shape-5" width="19.477539542596418" opacity="0.680118294892756" transform="matrix(0.9792296175772116,0.20275442303335325,-0.20275442303335325,0.9792296175772116,614.2139718873331,-12.954427787434668)" fill="#2c2891" filter="url(#bbburst-blur-1)"></use><use xlink:href="#bbburst-shape-10" width="30.111664877128607" opacity="0.25428687440470177" transform="matrix(1.1655752190042916,0.45159097515683094,-0.45159097515683094,1.1655752190042916,569.6838476272878,262.4768974997854)" fill="none" stroke="#ff5c58" filter="url(#bbburst-blur-3)"></use><use xlink:href="#bbburst-shape-6" width="26.891228811825464" opacity="0.5049746499363477" transform="matrix(0.9589218956266924,0.2836702277076516,-0.2836702277076516,0.9589218956266924,634.2385438319653,-165.58647649049516)" fill="#ffbd9b" filter="url(#bbburst-blur-2)"></use><use xlink:href="#bbburst-shape-8" width="22.48031051691645" opacity="0.734501813237536" transform="matrix(0.8727922715124579,-0.4880918466724517,0.4880918466724517,0.8727922715124579,177.12898208102823,-61.767836083608756)" fill="none" stroke="#00a19d" filter="url(#bbburst-blur-1)"></use><use xlink:href="#bbburst-shape-4" width="14.122172802388329" opacity="0.7646120101746575" transform="matrix(0.9221623528766394,-0.3868030441155038,0.3868030441155038,0.9221623528766394,314.79848114551504,-39.878421027763295)" fill="#ffa6d5" filter="url(#bbburst-blur-1)"></use><use xlink:href="#bbburst-shape-4" width="19.7941775483985" opacity="0.7304739033160313" transform="matrix(0.9128811790436255,0.408225370289403,-0.408225370289403,0.9128811790436255,446.77811251529886,87.04393700801495)" fill="#2c2891" filter="url(#bbburst-blur-1)"></use><use xlink:href="#bbburst-shape-5" width="30.55363705020381" opacity="0.6345143334213101" transform="matrix(0.8859032721034188,-0.46387001678967765,0.46387001678967765,0.8859032721034188,181.6969668206143,216.06664528847136)" fill="#00a19d" filter="url(#bbburst-blur-1)"></use><use xlink:href="#bbburst-shape-4" width="30.097777376963148" opacity="0.5574879964938906" transform="matrix(0.9029817399485344,0.4296789235225735,-0.4296789235225735,0.9029817399485344,744.2549116657033,-38.788051072770884)" fill="#ffa6d5" filter="url(#bbburst-blur-1)"></use><use xlink:href="#bbburst-shape-1" width="31.537986545513842" opacity="0.16902948120989858" transform="matrix(1.2373564794817205,-0.1773384974691138,0.1773384974691138,1.2373564794817205,227.90762958027867,272.8172536673138)" fill="#2c2891" filter="url(#bbburst-blur-3)"></use><use xlink:href="#bbburst-shape-1" width="21.603176869293137" opacity="0.7108451238233521" transform="matrix(0.9576351691405057,-0.2879841711366009,0.2879841711366009,0.9576351691405057,391.22595950859613,-37.35594209244317)" fill="#ff5c58" filter="url(#bbburst-blur-1)"></use><use xlink:href="#bbburst-shape-8" width="26.33037626383132" opacity="0.6891369612851932" transform="matrix(0.8108717100029524,0.5852239485161965,-0.5852239485161965,0.8108717100029524,665.4287849244922,201.37662277752878)" fill="none" stroke="#00a19d" filter="url(#bbburst-blur-1)"></use><use xlink:href="#bbburst-shape-4" width="31.22257250781566" opacity="0.0501356100784468" transform="matrix(1.62470306922821,0.6502614373007476,-0.6502614373007476,1.62470306922821,868.6114147616379,97.78420204440033)" fill="#ffbd9b" filter="url(#bbburst-blur-4)"></use><use xlink:href="#bbburst-shape-4" width="30.994313098606177" opacity="0.5218010447781252" transform="matrix(0.962958690292861,-0.26964895844311704,0.26964895844311704,0.962958690292861,337.7632319129775,-187.47609476526432)" fill="#00a19d" filter="url(#bbburst-blur-2)"></use><use xlink:href="#bbburst-shape-5" width="34.49318281447015" opacity="0.422212916163072" transform="matrix(0.9506383740912345,-0.3103009534390349,0.3103009534390349,0.9506383740912345,-0.49034737335620093,29.012887870730083)" fill="#2c2891" filter="url(#bbburst-blur-2)"></use><use xlink:href="#bbburst-shape-4" width="35.451964789434975" opacity="0.3466458891435841" transform="matrix(0.9040189026930433,0.42749248364581327,-0.42749248364581327,0.9040189026930433,275.69482366139044,122.78543894215858)" fill="#00a19d" filter="url(#bbburst-blur-2)"></use><use xlink:href="#bbburst-shape-5" width="31.093845160773988" opacity="0.38412844866650975" transform="matrix(0.7920709588134112,0.6104290263449171,-0.6104290263449171,0.7920709588134112,799.835653314025,294.1152094080212)" fill="#ffa6d5" filter="url(#bbburst-blur-2)"></use><use xlink:href="#bbburst-shape-6" width="14.35022891232811" opacity="0.8098206938517758" transform="matrix(0.9609997546261836,-0.2765492209506564,0.2765492209506564,0.9609997546261836,364.82016779951414,-5.760468153320062)" fill="#ffa6d5"></use><use xlink:href="#bbburst-shape-4" width="36.929240573330276" opacity="0.06834773953413242" transform="matrix(1.7452353233190199,0.12904908461339842,-0.12904908461339842,1.7452353233190199,70.00526364404303,-532.1410113530071)" fill="#ffa6d5" filter="url(#bbburst-blur-4)"></use><use xlink:href="#bbburst-shape-10" width="39.35672602749669" opacity="0.16995394622812054" transform="matrix(1.2329891103313058,0.2055184999079534,-0.2055184999079534,1.2329891103313058,100.72729197418427,11.910478794701362)" fill="none" stroke="#00a19d" filter="url(#bbburst-blur-3)"></use><use xlink:href="#bbburst-shape-4" width="28.169139198563006" opacity="0.5317188628175304" transform="matrix(0.9992689778270003,0.03822969987564613,-0.03822969987564613,0.9992689778270003,222.84857155433775,-112.42791380319909)" fill="#00a19d" filter="url(#bbburst-blur-2)"></use><use xlink:href="#bbburst-shape-10" width="21.647696549678123" opacity="0.6944495823263226" transform="matrix(0.9457177137000635,-0.32498923981252786,0.32498923981252786,0.9457177137000635,347.97110941276975,130.70957658700684)" fill="none" stroke="#2c2891" filter="url(#bbburst-blur-1)"></use><use xlink:href="#bbburst-shape-6" width="21.636984303133318" opacity="0.6060750068390524" transform="matrix(0.7883445809948542,-0.6152339568132175,0.6152339568132175,0.7883445809948542,284.6963025445365,-18.288731110214485)" fill="#00a19d" filter="url(#bbburst-blur-1)"></use><use xlink:href="#bbburst-shape-5" width="29.846012447173422" opacity="0.019240698573041115" transform="matrix(1.5385044589389367,-0.8339688422387308,0.8339688422387308,1.5385044589389367,401.64400723267556,-460.797394186575)" fill="#2c2891" filter="url(#bbburst-blur-4)"></use><use xlink:href="#bbburst-shape-8" width="36.34526447735495" opacity="0.3553402741070466" transform="matrix(0.9793383078570056,-0.20222877827791208,0.20222877827791208,0.9793383078570056,393.15272049643073,-263.2354250982349)" fill="none" stroke="#ffbd9b" filter="url(#bbburst-blur-2)"></use><use xlink:href="#bbburst-shape-10" width="47.989631007173884" opacity="0.15680230808097817" transform="matrix(1.2189152693736025,0.2770299010718483,-0.2770299010718483,1.2189152693736025,228.09398028538214,-376.5725644002655)" fill="none" stroke="#00a19d" filter="url(#bbburst-blur-3)"></use><use xlink:href="#bbburst-shape-10" width="41.241253039242565" opacity="-0.07335200846453627" transform="matrix(1.7305212226958915,0.26037722212036385,-0.26037722212036385,1.7305212226958915,795.6374534701533,-652.9031658840148)" fill="none" stroke="#2c2891" filter="url(#bbburst-blur-4)"></use><use xlink:href="#bbburst-shape-8" width="27.763054710752385" opacity="0.37161260564636" transform="matrix(0.9117351921361867,-0.41077845539948993,0.41077845539948993,0.9117351921361867,502.79188310626625,82.18956128590742)" fill="none" stroke="#ffa6d5" filter="url(#bbburst-blur-2)"></use><use xlink:href="#bbburst-shape-5" width="26.226286125381403" opacity="0.5087516361903575" transform="matrix(0.8511808215468126,-0.5248725645629548,0.5248725645629548,0.8511808215468126,350.6968541216652,205.5163781541308)" fill="#00a19d" filter="url(#bbburst-blur-2)"></use><use xlink:href="#bbburst-shape-5" width="19.66688012446195" opacity="0.7250582384169029" transform="matrix(0.9687653400923906,0.24797926493091083,-0.24797926493091083,0.9687653400923906,422.8920776510662,114.21344374963809)" fill="#ff5c58" filter="url(#bbburst-blur-1)"></use><use xlink:href="#bbburst-shape-8" width="28.723622658143963" opacity="0.35258408399861296" transform="matrix(0.7572469247335409,-0.6531286971046326,0.6531286971046326,0.7572469247335409,372.27775356217523,265.04899632131077)" fill="none" stroke="#ffbd9b" filter="url(#bbburst-blur-2)"></use><use xlink:href="#bbburst-shape-8" width="10.617421903634801" opacity="0.9588022593293739" transform="matrix(0.9474131899478881,-0.32001288647922743,0.32001288647922743,0.9474131899478881,282.4225267625498,32.96922212896766)" fill="none" stroke="#2c2891"></use><use xlink:href="#bbburst-shape-8" width="35.02038153559211" opacity="0.3228581959849509" transform="matrix(1.0082227853747963,-0.7389092062297554,0.7389092062297554,1.0082227853747963,-13.453292580525442,297.4050743493776)" fill="none" stroke="#ffbd9b" filter="url(#bbburst-blur-3)"></use><use xlink:href="#bbburst-shape-8" width="10.989013684980982" opacity="0.9378920716788368" transform="matrix(0.8345372193901919,0.5509515672475093,-0.5509515672475093,0.8345372193901919,638.0870601888759,46.299730544223394)" fill="none" stroke="#00a19d"></use><use xlink:href="#bbburst-shape-6" width="19.881798120654295" opacity="0.73603819967254" transform="matrix(0.9948202660841169,-0.10164958528359477,0.10164958528359477,0.9948202660841169,230.79507836903434,8.576276691314547)" fill="#2c2891" filter="url(#bbburst-blur-1)"></use><use xlink:href="#bbburst-shape-6" width="21.2065853375173" opacity="0.6468375330526142" transform="matrix(0.9055145696824469,-0.4243151707078277,0.4243151707078277,0.9055145696824469,376.5984355211221,73.01296628570327)" fill="#2c2891" filter="url(#bbburst-blur-1)"></use><use xlink:href="#bbburst-shape-8" width="27.381774924631376" opacity="0.5024037034426325" transform="matrix(0.9782923139389818,0.20722969982102657,-0.20722969982102657,0.9782923139389818,680.4368290245226,80.9745070873181)" fill="none" stroke="#ffa6d5" filter="url(#bbburst-blur-2)"></use><use xlink:href="#bbburst-shape-1" width="37.514715727098306" opacity="0.42792369415541986" transform="matrix(0.8700265211280971,-0.4930049214092501,0.4930049214092501,0.8700265211280971,139.51738137498637,-191.83141636956876)" fill="#2c2891" filter="url(#bbburst-blur-2)"></use><use xlink:href="#bbburst-shape-1" width="19.066087071237497" opacity="0.8552479161449577" transform="matrix(0.7733826902384212,0.6339394406720427,-0.6339394406720427,0.7733826902384212,584.0610923909412,104.20126731530007)" fill="#00a19d"></use><use xlink:href="#bbburst-shape-4" width="31.68439981530275" opacity="0.18152248605420562" transform="matrix(1.2032833235902647,-0.33853986939438374,0.33853986939438374,1.2032833235902647,511.2761721671612,-330.93587086048973)" fill="#ffa6d5" filter="url(#bbburst-blur-3)"></use><use xlink:href="#bbburst-shape-8" width="27.80490306711436" opacity="0.2726038023656425" transform="matrix(1.1528585193020866,0.4831327296640131,-0.4831327296640131,1.1528585193020866,866.9740449228282,-220.14148680457242)" fill="none" stroke="#ffa6d5" filter="url(#bbburst-blur-3)"></use><use xlink:href="#bbburst-shape-8" width="14.291832775953957" opacity="0.8836167138985391" transform="matrix(0.964971073338597,0.2623562989900493,-0.2623562989900493,0.964971073338597,550.4116261069121,13.03983391926397)" fill="none" stroke="#2c2891"></use><use xlink:href="#bbburst-shape-10" width="13.857363309919682" opacity="0.83746692500335" transform="matrix(0.8691329047958726,-0.49457860224749794,0.49457860224749794,0.8691329047958726,151.99998227697017,114.08759287694551)" fill="none" stroke="#00a19d"></use><use xlink:href="#bbburst-shape-10" width="35.56335280771901" opacity="0.49859509365568144" transform="matrix(0.9832545269842214,-0.18223757890466763,0.18223757890466763,0.9832545269842214,181.3041676707668,-175.6540848771109)" fill="none" stroke="#ffa6d5" filter="url(#bbburst-blur-2)"></use><use xlink:href="#bbburst-shape-6" width="37.66429001644929" opacity="0.09327087399634115" transform="matrix(1.7499900039790113,-0.005914894212030634,0.005914894212030634,1.7499900039790113,169.8107517150375,-658.3719693780693)" fill="#00a19d" filter="url(#bbburst-blur-4)"></use><use xlink:href="#bbburst-shape-10" width="35.564246179144114" opacity="0.21429986403919976" transform="matrix(1.076844805892363,-0.6347481894599143,0.6347481894599143,1.076844805892363,454.57124769671947,113.49278184474957)" fill="none" stroke="#00a19d" filter="url(#bbburst-blur-3)"></use><use xlink:href="#bbburst-shape-10" width="27.17149899596941" opacity="0.5645954126535955" transform="matrix(0.9051830080255053,0.42502202529033484,-0.42502202529033484,0.9051830080255053,551.0261484503895,-163.66543169266643)" fill="none" stroke="#00a19d" filter="url(#bbburst-blur-1)"></use><use xlink:href="#bbburst-shape-5" width="14.015560597878629" opacity="0.8761929949360477" transform="matrix(0.8066173432042709,0.5910739899894797,-0.5910739899894797,0.8066173432042709,597.1295071598472,28.80594911887505)" fill="#2c2891"></use><use xlink:href="#bbburst-shape-5" width="20.116305753644294" opacity="0.7529752636836495" transform="matrix(0.8926188198164932,-0.4508122031505037,0.4508122031505037,0.8926188198164932,306.9158282674178,103.15312663040373)" fill="#ff5c58" filter="url(#bbburst-blur-1)"></use><use xlink:href="#bbburst-shape-4" width="30.604262219583696" opacity="0.16361730038497768" transform="matrix(1.1310871765598924,-0.5321107018485632,0.5321107018485632,1.1310871765598924,266.4110912971058,319.51694375518014)" fill="#00a19d" filter="url(#bbburst-blur-3)"></use><use xlink:href="#bbburst-shape-5" width="23.73714275575108" opacity="0.5766828844095044" transform="matrix(0.9381523063528134,-0.34622283299184203,0.34622283299184203,0.9381523063528134,141.57556320482308,185.21273897758726)" fill="#2c2891" filter="url(#bbburst-blur-1)"></use><use xlink:href="#bbburst-shape-6" width="16.440116301148606" opacity="0.832892139324479" transform="matrix(0.9034067543506954,0.4287846034940413,-0.4287846034940413,0.9034067543506954,553.8652792333193,-39.38764976452927)" fill="#00a19d"></use><use xlink:href="#bbburst-shape-8" width="23.750710287177508" opacity="0.7105684485684254" transform="matrix(0.9533926997151806,-0.3017322656425719,0.3017322656425719,0.9533926997151806,149.20775835703466,-31.21045710787081)" fill="none" stroke="#ffa6d5" filter="url(#bbburst-blur-1)"></use><use xlink:href="#bbburst-shape-4" width="37.304306933660456" opacity="0.21401815543056668" transform="matrix(1.2126334777356498,0.303348065223339,-0.303348065223339,1.2126334777356498,145.31972022364295,-105.25636914162737)" fill="#00a19d" filter="url(#bbburst-blur-3)"></use><use xlink:href="#bbburst-shape-6" width="26.54220775843347" opacity="0.5646166800363668" transform="matrix(0.9999781425312276,0.006611691144925562,-0.006611691144925562,0.9999781425312276,201.01566893256347,53.83618143874406)" fill="#ffa6d5" filter="url(#bbburst-blur-1)"></use><use xlink:href="#bbburst-shape-10" width="13.656224169008869" opacity="0.9340536769755905" transform="matrix(0.9255974871985151,-0.3785093019884646,0.3785093019884646,0.9255974871985151,224.309236905838,55.96422125222216)" fill="none" stroke="#00a19d"></use><use xlink:href="#bbburst-shape-8" width="31.402634590992495" opacity="0.5564756293525155" transform="matrix(0.9995237910310614,-0.030857594898098403,0.030857594898098403,0.9995237910310614,482.02190577046827,167.17311375075974)" fill="none" stroke="#2c2891" filter="url(#bbburst-blur-1)"></use><use xlink:href="#bbburst-shape-8" width="33.21165978722376" opacity="0.17285700556090244" transform="matrix(1.2343196549966653,-0.19737018338369477,0.19737018338369477,1.2343196549966653,384.24715526153415,-453.13361784033384)" fill="none" stroke="#ffa6d5" filter="url(#bbburst-blur-3)"></use><use xlink:href="#bbburst-shape-4" width="23.30818619902898" opacity="0.7577868631882047" transform="matrix(0.9867454789638914,-0.16227556730549583,0.16227556730549583,0.9867454789638914,312.89453547381754,115.6834081547866)" fill="#2c2891" filter="url(#bbburst-blur-1)"></use><use xlink:href="#bbburst-shape-5" width="32.37761144754541" opacity="0.5282761801312912" transform="matrix(0.9994101648964007,-0.03434126237850219,0.03434126237850219,0.9994101648964007,582.3102514392234,-3.8018326711849113)" fill="#ffa6d5" filter="url(#bbburst-blur-2)"></use><use xlink:href="#bbburst-shape-4" width="49.6287040543251" opacity="0.18249692709712673" transform="matrix(0.8890239827092892,0.8787128986009672,-0.8787128986009672,0.8890239827092892,383.71436685565965,-103.2507321681544)" fill="#ffbd9b" filter="url(#bbburst-blur-3)"></use></svg>