<svg xmlns="http://www.w3.org/2000/svg" version="1.1" xmlns:xlink="http://www.w3.org/1999/xlink" xmlns:svgjs="http://svgjs.dev/svgjs" viewBox="0 0 1422 800"><circle r="14.5" cx="1042" cy="26" stroke-width="2" stroke="hsl(227, 50%, 50%)" fill="none" opacity="0.94"></circle><circle r="16.5" cx="778" cy="767" fill="hsl(274, 50%, 50%)" opacity="0.95"></circle><circle r="14.5" cx="1337" cy="282" stroke-width="2" stroke="hsl(178, 50%, 50%)" fill="none" opacity="0.81"></circle><circle r="13" cx="1061" cy="392" fill="hsl(145, 50%, 50%)" opacity="0.75"></circle><circle r="16" cx="904" cy="168" stroke-width="2" stroke="hsl(246, 50%, 50%)" fill="none" opacity="0.40"></circle><circle r="13.5" cx="29" cy="36" stroke-width="2" stroke="hsl(153, 50%, 50%)" fill="none" opacity="0.52"></circle><circle r="17" cx="687" cy="362" stroke-width="2" stroke="hsl(260, 50%, 50%)" fill="none" opacity="0.54"></circle><circle r="13" cx="1308" cy="612" fill="hsl(154, 50%, 50%)" opacity="0.55"></circle><circle r="16" cx="867" cy="119" fill="hsl(271, 50%, 50%)" opacity="0.48"></circle><circle r="15" cx="513" cy="302" fill="hsl(190, 50%, 50%)" opacity="0.65"></circle><circle r="17" cx="857" cy="468" fill="hsl(258, 50%, 50%)" opacity="1.00"></circle><circle r="7.5" cx="175" cy="522" stroke-width="2" stroke="hsl(26, 50%, 50%)" fill="none" opacity="0.30"></circle><circle r="9" cx="321" cy="132" fill="hsl(66, 50%, 50%)" opacity="0.30"></circle><circle r="10.5" cx="27" cy="509" stroke-width="2" stroke="hsl(70, 50%, 50%)" fill="none" opacity="0.51"></circle><circle r="14" cx="981" cy="97" fill="hsl(226, 50%, 50%)" opacity="0.93"></circle><circle r="9.5" cx="94" cy="82" stroke-width="2" stroke="hsl(79, 50%, 50%)" fill="none" opacity="0.32"></circle><circle r="17" cx="779" cy="169" fill="hsl(279, 50%, 50%)" opacity="0.27"></circle><circle r="12" cx="1009" cy="775" fill="hsl(169, 50%, 50%)" opacity="0.43"></circle><circle r="17" cx="802" cy="26" stroke-width="2" stroke="hsl(299, 50%, 50%)" fill="none" opacity="0.91"></circle><circle r="11" cx="1253" cy="267" stroke-width="2" stroke="hsl(134, 50%, 50%)" fill="none" opacity="0.78"></circle><circle r="7.5" cx="184" cy="771" stroke-width="2" stroke="hsl(25, 50%, 50%)" fill="none" opacity="0.92"></circle><circle r="13.5" cx="1344" cy="344" fill="hsl(178, 50%, 50%)" opacity="0.95"></circle><circle r="12.5" cx="992" cy="683" fill="hsl(183, 50%, 50%)" opacity="0.63"></circle><circle r="12" cx="398" cy="232" fill="hsl(99, 50%, 50%)" opacity="0.63"></circle><circle r="11.5" cx="1132" cy="771" stroke-width="2" stroke="hsl(121, 50%, 50%)" fill="none" opacity="0.96"></circle><circle r="17" cx="830" cy="771" stroke-width="2" stroke="hsl(265, 50%, 50%)" fill="none" opacity="0.60"></circle><circle r="18" cx="565" cy="701" stroke-width="2" stroke="hsl(216, 50%, 50%)" fill="none" opacity="0.36"></circle><circle r="11.5" cx="1229" cy="536" stroke-width="2" stroke="hsl(126, 50%, 50%)" fill="none" opacity="0.55"></circle><circle r="16.5" cx="756" cy="221" stroke-width="2" stroke="hsl(274, 50%, 50%)" fill="none" opacity="0.70"></circle><circle r="13" cx="1302" cy="673" stroke-width="2" stroke="hsl(154, 50%, 50%)" fill="none" opacity="1.00"></circle><circle r="11.5" cx="1198" cy="236" fill="hsl(117, 50%, 50%)" opacity="0.58"></circle><circle r="14.5" cx="726" cy="776" fill="hsl(270, 50%, 50%)" opacity="0.99"></circle><circle r="11" cx="1072" cy="505" stroke-width="2" stroke="hsl(135, 50%, 50%)" fill="none" opacity="0.20"></circle><circle r="16" cx="930" cy="221" fill="hsl(225, 50%, 50%)" opacity="0.94"></circle><circle r="12" cx="444" cy="539" stroke-width="2" stroke="hsl(130, 50%, 50%)" fill="none" opacity="0.66"></circle><circle r="16" cx="689" cy="25" stroke-width="2" stroke="hsl(287, 50%, 50%)" fill="none" opacity="0.54"></circle><circle r="11.5" cx="384" cy="499" fill="hsl(99, 50%, 50%)" opacity="0.15"></circle><circle r="10" cx="1218" cy="350" stroke-width="2" stroke="hsl(120, 50%, 50%)" fill="none" opacity="0.34"></circle><circle r="12.5" cx="1135" cy="151" stroke-width="2" stroke="hsl(137, 50%, 50%)" fill="none" opacity="0.10"></circle><circle r="14.5" cx="455" cy="405" fill="hsl(146, 50%, 50%)" opacity="0.57"></circle><circle r="11.5" cx="1070" cy="773" stroke-width="2" stroke="hsl(135, 50%, 50%)" fill="none" opacity="0.26"></circle><circle r="13" cx="959" cy="592" stroke-width="2" stroke="hsl(197, 50%, 50%)" fill="none" opacity="0.48"></circle><circle r="14.5" cx="957" cy="313" stroke-width="2" stroke="hsl(197, 50%, 50%)" fill="none" opacity="0.73"></circle><circle r="9" cx="148" cy="449" stroke-width="2" stroke="hsl(29, 50%, 50%)" fill="none" opacity="0.50"></circle><circle r="9" cx="271" cy="235" stroke-width="2" stroke="hsl(41, 50%, 50%)" fill="none" opacity="0.57"></circle><circle r="18.5" cx="749" cy="391" fill="hsl(273, 50%, 50%)" opacity="0.96"></circle><circle r="12.5" cx="1032" cy="722" stroke-width="2" stroke="hsl(156, 50%, 50%)" fill="none" opacity="0.55"></circle><circle r="7.5" cx="121" cy="507" stroke-width="2" stroke="hsl(34, 50%, 50%)" fill="none" opacity="0.98"></circle><circle r="7.5" cx="199" cy="271" fill="hsl(25, 50%, 50%)" opacity="0.51"></circle><circle r="14" cx="637" cy="22" stroke-width="2" stroke="hsl(274, 50%, 50%)" fill="none" opacity="0.37"></circle><circle r="19" cx="787" cy="281" fill="hsl(274, 50%, 50%)" opacity="0.76"></circle><circle r="10" cx="1205" cy="730" fill="hsl(120, 50%, 50%)" opacity="0.96"></circle><circle r="15" cx="609" cy="108" fill="hsl(260, 50%, 50%)" opacity="0.11"></circle><circle r="9" cx="81" cy="684" fill="hsl(49, 50%, 50%)" opacity="0.28"></circle><circle r="7.5" cx="249" cy="298" stroke-width="2" stroke="hsl(34, 50%, 50%)" fill="none" opacity="0.23"></circle><circle r="13" cx="457" cy="188" stroke-width="2" stroke="hsl(146, 50%, 50%)" fill="none" opacity="0.64"></circle><circle r="15" cx="559" cy="768" fill="hsl(216, 50%, 50%)" opacity="0.12"></circle><circle r="8.5" cx="254" cy="709" stroke-width="2" stroke="hsl(34, 50%, 50%)" fill="none" opacity="0.46"></circle><circle r="9" cx="155" cy="171" fill="hsl(31, 50%, 50%)" opacity="0.78"></circle><circle r="11.5" cx="1266" cy="716" fill="hsl(134, 50%, 50%)" opacity="0.68"></circle><circle r="10.5" cx="375" cy="618" stroke-width="2" stroke="hsl(85, 50%, 50%)" fill="none" opacity="0.93"></circle><circle r="14.5" cx="1348" cy="213" fill="hsl(178, 50%, 50%)" opacity="0.14"></circle><circle r="16" cx="848" cy="263" stroke-width="2" stroke="hsl(258, 50%, 50%)" fill="none" opacity="0.36"></circle><circle r="13.5" cx="1017" cy="518" stroke-width="2" stroke="hsl(169, 50%, 50%)" fill="none" opacity="0.18"></circle><circle r="11.5" cx="1103" cy="662" stroke-width="2" stroke="hsl(127, 50%, 50%)" fill="none" opacity="0.38"></circle><circle r="11" cx="30" cy="373" fill="hsl(70, 50%, 50%)" opacity="0.15"></circle><circle r="14" cx="1345" cy="510" fill="hsl(178, 50%, 50%)" opacity="0.14"></circle><circle r="13.5" cx="1396" cy="695" stroke-width="2" stroke="hsl(203, 50%, 50%)" fill="none" opacity="0.39"></circle><circle r="16" cx="586" cy="32" fill="hsl(258, 50%, 50%)" opacity="0.66"></circle><circle r="8.5" cx="147" cy="239" fill="hsl(29, 50%, 50%)" opacity="0.11"></circle><circle r="11" cx="1169" cy="511" stroke-width="2" stroke="hsl(116, 50%, 50%)" fill="none" opacity="0.85"></circle><circle r="12.5" cx="1398" cy="615" stroke-width="2" stroke="hsl(203, 50%, 50%)" fill="none" opacity="0.69"></circle><circle r="17" cx="720" cy="169" stroke-width="2" stroke="hsl(276, 50%, 50%)" fill="none" opacity="0.54"></circle><circle r="9" cx="146" cy="312" stroke-width="2" stroke="hsl(29, 50%, 50%)" fill="none" opacity="0.23"></circle><circle r="12.5" cx="1246" cy="203" stroke-width="2" stroke="hsl(134, 50%, 50%)" fill="none" opacity="0.44"></circle><circle r="16.5" cx="658" cy="583" stroke-width="2" stroke="hsl(254, 50%, 50%)" fill="none" opacity="0.58"></circle><circle r="13.5" cx="465" cy="252" fill="hsl(146, 50%, 50%)" opacity="0.53"></circle><circle r="12" cx="1088" cy="717" stroke-width="2" stroke="hsl(135, 50%, 50%)" fill="none" opacity="0.44"></circle><circle r="11.5" cx="469" cy="23" fill="hsl(191, 50%, 50%)" opacity="0.27"></circle><circle r="13" cx="1006" cy="348" fill="hsl(169, 50%, 50%)" opacity="0.51"></circle><circle r="17" cx="651" cy="268" fill="hsl(254, 50%, 50%)" opacity="0.19"></circle><circle r="13" cx="964" cy="543" fill="hsl(197, 50%, 50%)" opacity="0.60"></circle><circle r="18" cx="622" cy="389" fill="hsl(237, 50%, 50%)" opacity="0.74"></circle><circle r="9" cx="147" cy="381" fill="hsl(29, 50%, 50%)" opacity="0.65"></circle><circle r="9.5" cx="341" cy="187" fill="hsl(72, 50%, 50%)" opacity="0.49"></circle><circle r="17.5" cx="558" cy="629" fill="hsl(216, 50%, 50%)" opacity="0.89"></circle><circle r="10" cx="88" cy="343" stroke-width="2" stroke="hsl(49, 50%, 50%)" fill="none" opacity="0.20"></circle><circle r="8" cx="201" cy="593" fill="hsl(26, 50%, 50%)" opacity="0.85"></circle><circle r="13" cx="945" cy="776" stroke-width="2" stroke="hsl(211, 50%, 50%)" fill="none" opacity="0.32"></circle><circle r="12" cx="1118" cy="548" stroke-width="2" stroke="hsl(121, 50%, 50%)" fill="none" opacity="0.30"></circle><circle r="11.5" cx="411" cy="721" stroke-width="2" stroke="hsl(114, 50%, 50%)" fill="none" opacity="0.16"></circle><circle r="12.5" cx="1045" cy="660" stroke-width="2" stroke="hsl(145, 50%, 50%)" fill="none" opacity="0.46"></circle><circle r="11" cx="1199" cy="616" fill="hsl(117, 50%, 50%)" opacity="0.77"></circle><circle r="8.5" cx="212" cy="473" fill="hsl(26, 50%, 50%)" opacity="0.68"></circle><circle r="12.5" cx="433" cy="664" stroke-width="2" stroke="hsl(130, 50%, 50%)" fill="none" opacity="0.94"></circle><circle r="13" cx="441" cy="115" fill="hsl(141, 50%, 50%)" opacity="0.70"></circle><circle r="9.5" cx="332" cy="246" fill="hsl(60, 50%, 50%)" opacity="0.15"></circle><circle r="9.5" cx="89" cy="410" fill="hsl(49, 50%, 50%)" opacity="0.49"></circle><circle r="10.5" cx="28" cy="646" stroke-width="2" stroke="hsl(70, 50%, 50%)" fill="none" opacity="0.50"></circle><circle r="13.5" cx="922" cy="21" stroke-width="2" stroke="hsl(276, 50%, 50%)" fill="none" opacity="0.66"></circle><circle r="17" cx="788" cy="545" stroke-width="2" stroke="hsl(274, 50%, 50%)" fill="none" opacity="0.29"></circle><circle r="12.5" cx="1295" cy="38" fill="hsl(169, 50%, 50%)" opacity="0.76"></circle><circle r="12.5" cx="442" cy="606" stroke-width="2" stroke="hsl(130, 50%, 50%)" fill="none" opacity="0.87"></circle><circle r="13" cx="989" cy="202" stroke-width="2" stroke="hsl(183, 50%, 50%)" fill="none" opacity="0.54"></circle><circle r="13" cx="1034" cy="237" fill="hsl(156, 50%, 50%)" opacity="0.27"></circle><circle r="14.5" cx="506" cy="451" stroke-width="2" stroke="hsl(176, 50%, 50%)" fill="none" opacity="0.82"></circle><circle r="9" cx="270" cy="583" fill="hsl(41, 50%, 50%)" opacity="0.31"></circle><circle r="15.5" cx="662" cy="163" fill="hsl(260, 50%, 50%)" opacity="0.36"></circle><circle r="13.5" cx="1189" cy="109" fill="hsl(150, 50%, 50%)" opacity="0.65"></circle><circle r="17.5" cx="876" cy="666" fill="hsl(249, 50%, 50%)" opacity="0.91"></circle><circle r="11.5" cx="1260" cy="772" stroke-width="2" stroke="hsl(134, 50%, 50%)" fill="none" opacity="0.14"></circle><circle r="9.5" cx="316" cy="631" stroke-width="2" stroke="hsl(60, 50%, 50%)" fill="none" opacity="0.12"></circle><circle r="12" cx="1251" cy="588" fill="hsl(134, 50%, 50%)" opacity="0.39"></circle><circle r="15.5" cx="904" cy="571" fill="hsl(237, 50%, 50%)" opacity="0.16"></circle><circle r="13.5" cx="1244" cy="82" stroke-width="2" stroke="hsl(157, 50%, 50%)" fill="none" opacity="0.39"></circle><circle r="16.5" cx="844" cy="316" fill="hsl(265, 50%, 50%)" opacity="0.81"></circle><circle r="17.5" cx="689" cy="418" stroke-width="2" stroke="hsl(266, 50%, 50%)" fill="none" opacity="0.39"></circle><circle r="10.5" cx="1261" cy="376" stroke-width="2" stroke="hsl(134, 50%, 50%)" fill="none" opacity="0.96"></circle><circle r="10.5" cx="1178" cy="566" fill="hsl(117, 50%, 50%)" opacity="0.74"></circle><circle r="8" cx="75" cy="761" stroke-width="2" stroke="hsl(49, 50%, 50%)" fill="none" opacity="0.11"></circle><circle r="16" cx="724" cy="264" stroke-width="2" stroke="hsl(270, 50%, 50%)" fill="none" opacity="1.00"></circle><circle r="12" cx="1361" cy="413" fill="hsl(190, 50%, 50%)" opacity="0.47"></circle><circle r="14.5" cx="955" cy="428" stroke-width="2" stroke="hsl(211, 50%, 50%)" fill="none" opacity="0.66"></circle><circle r="12" cx="401" cy="168" fill="hsl(117, 50%, 50%)" opacity="0.19"></circle><circle r="17" cx="690" cy="217" stroke-width="2" stroke="hsl(266, 50%, 50%)" fill="none" opacity="0.20"></circle><circle r="18" cx="633" cy="327" fill="hsl(246, 50%, 50%)" opacity="0.51"></circle><circle r="10" cx="269" cy="367" fill="hsl(41, 50%, 50%)" opacity="0.17"></circle><circle r="12" cx="1221" cy="478" fill="hsl(120, 50%, 50%)" opacity="0.41"></circle><circle r="15.5" cx="498" cy="517" fill="hsl(176, 50%, 50%)" opacity="0.89"></circle><circle r="14" cx="1347" cy="81" stroke-width="2" stroke="hsl(176, 50%, 50%)" fill="none" opacity="0.60"></circle><circle r="14" cx="1352" cy="575" stroke-width="2" stroke="hsl(178, 50%, 50%)" fill="none" opacity="0.55"></circle><circle r="11.5" cx="1151" cy="27" stroke-width="2" stroke="hsl(182, 50%, 50%)" fill="none" opacity="0.24"></circle><circle r="18" cx="798" cy="354" fill="hsl(274, 50%, 50%)" opacity="0.61"></circle><circle r="18" cx="668" cy="769" stroke-width="2" stroke="hsl(260, 50%, 50%)" fill="none" opacity="0.38"></circle><circle r="9" cx="304" cy="305" stroke-width="2" stroke="hsl(50, 50%, 50%)" fill="none" opacity="0.82"></circle><circle r="8" cx="79" cy="472" stroke-width="2" stroke="hsl(49, 50%, 50%)" fill="none" opacity="0.42"></circle><circle r="8" cx="243" cy="770" stroke-width="2" stroke="hsl(29, 50%, 50%)" fill="none" opacity="0.33"></circle><circle r="15" cx="715" cy="727" fill="hsl(270, 50%, 50%)" opacity="0.23"></circle><circle r="18.5" cx="817" cy="657" fill="hsl(271, 50%, 50%)" opacity="0.43"></circle><circle r="15.5" cx="559" cy="497" fill="hsl(216, 50%, 50%)" opacity="0.70"></circle><circle r="7.5" cx="193" cy="715" fill="hsl(25, 50%, 50%)" opacity="0.40"></circle><circle r="18.5" cx="749" cy="451" fill="hsl(273, 50%, 50%)" opacity="0.47"></circle><circle r="6.5" cx="126" cy="777" stroke-width="2" stroke="hsl(34, 50%, 50%)" fill="none" opacity="0.89"></circle><circle r="17" cx="688" cy="479" stroke-width="2" stroke="hsl(260, 50%, 50%)" fill="none" opacity="0.16"></circle><circle r="16" cx="603" cy="580" fill="hsl(237, 50%, 50%)" opacity="0.81"></circle><circle r="8.5" cx="276" cy="506" stroke-width="2" stroke="hsl(41, 50%, 50%)" fill="none" opacity="0.27"></circle><circle r="13.5" cx="1297" cy="174" fill="hsl(156, 50%, 50%)" opacity="0.37"></circle><circle r="15" cx="551" cy="557" stroke-width="2" stroke="hsl(204, 50%, 50%)" fill="none" opacity="0.83"></circle><circle r="8.5" cx="205" cy="343" fill="hsl(26, 50%, 50%)" opacity="0.79"></circle><circle r="11" cx="31" cy="240" fill="hsl(70, 50%, 50%)" opacity="0.76"></circle><circle r="16" cx="632" cy="213" fill="hsl(246, 50%, 50%)" opacity="0.91"></circle><circle r="14" cx="961" cy="489" stroke-width="2" stroke="hsl(197, 50%, 50%)" fill="none" opacity="0.90"></circle><circle r="17" cx="636" cy="452" fill="hsl(246, 50%, 50%)" opacity="0.11"></circle><circle r="8.5" cx="258" cy="647" stroke-width="2" stroke="hsl(34, 50%, 50%)" fill="none" opacity="0.99"></circle><circle r="19.5" cx="778" cy="706" stroke-width="2" stroke="hsl(274, 50%, 50%)" fill="none" opacity="0.50"></circle><circle r="15" cx="641" cy="70" fill="hsl(272, 50%, 50%)" opacity="0.40"></circle><circle r="11.5" cx="1219" cy="418" stroke-width="2" stroke="hsl(120, 50%, 50%)" fill="none" opacity="0.93"></circle><circle r="13" cx="505" cy="365" stroke-width="2" stroke="hsl(176, 50%, 50%)" fill="none" opacity="0.68"></circle><circle r="17.5" cx="801" cy="120" stroke-width="2" stroke="hsl(288, 50%, 50%)" fill="none" opacity="0.70"></circle><circle r="13.5" cx="1355" cy="652" fill="hsl(178, 50%, 50%)" opacity="0.54"></circle><circle r="11" cx="419" cy="292" fill="hsl(114, 50%, 50%)" opacity="0.37"></circle><circle r="16" cx="873" cy="215" stroke-width="2" stroke="hsl(249, 50%, 50%)" fill="none" opacity="0.33"></circle><circle r="8.5" cx="204" cy="49" fill="hsl(56, 50%, 50%)" opacity="0.18"></circle><circle r="15" cx="569" cy="351" fill="hsl(216, 50%, 50%)" opacity="0.40"></circle><circle r="19" cx="622" cy="516" stroke-width="2" stroke="hsl(237, 50%, 50%)" fill="none" opacity="0.18"></circle><circle r="17.5" cx="859" cy="606" stroke-width="2" stroke="hsl(258, 50%, 50%)" fill="none" opacity="0.91"></circle><circle r="12.5" cx="1327" cy="455" stroke-width="2" stroke="hsl(165, 50%, 50%)" fill="none" opacity="0.74"></circle><circle r="17" cx="888" cy="68" stroke-width="2" stroke="hsl(283, 50%, 50%)" fill="none" opacity="0.53"></circle><circle r="15" cx="529" cy="27" stroke-width="2" stroke="hsl(221, 50%, 50%)" fill="none" opacity="0.59"></circle><circle r="11.5" cx="1163" cy="332" fill="hsl(116, 50%, 50%)" opacity="0.76"></circle><circle r="12.5" cx="1016" cy="584" fill="hsl(169, 50%, 50%)" opacity="0.71"></circle><circle r="19.5" cx="732" cy="581" stroke-width="2" stroke="hsl(270, 50%, 50%)" fill="none" opacity="0.28"></circle><circle r="12" cx="1397" cy="37" stroke-width="2" stroke="hsl(178, 50%, 50%)" fill="none" opacity="0.23"></circle><circle r="18" cx="742" cy="512" fill="hsl(273, 50%, 50%)" opacity="0.38"></circle><circle r="9.5" cx="340" cy="361" fill="hsl(72, 50%, 50%)" opacity="0.85"></circle><circle r="13" cx="1007" cy="403" stroke-width="2" stroke="hsl(169, 50%, 50%)" fill="none" opacity="0.34"></circle><circle r="13.5" cx="1296" cy="109" fill="hsl(163, 50%, 50%)" opacity="0.15"></circle><circle r="11" cx="1115" cy="368" stroke-width="2" stroke="hsl(121, 50%, 50%)" fill="none" opacity="0.28"></circle><circle r="11.5" cx="1132" cy="605" stroke-width="2" stroke="hsl(121, 50%, 50%)" fill="none" opacity="0.80"></circle><circle r="14" cx="1395" cy="315" fill="hsl(203, 50%, 50%)" opacity="0.67"></circle><circle r="9" cx="76" cy="547" fill="hsl(49, 50%, 50%)" opacity="0.19"></circle><circle r="11.5" cx="1062" cy="333" fill="hsl(145, 50%, 50%)" opacity="0.63"></circle><circle r="10.5" cx="374" cy="29" stroke-width="2" stroke="hsl(112, 50%, 50%)" fill="none" opacity="0.60"></circle><circle r="18" cx="757" cy="640" fill="hsl(274, 50%, 50%)" opacity="0.79"></circle><circle r="12.5" cx="386" cy="428" fill="hsl(99, 50%, 50%)" opacity="0.87"></circle><circle r="16.5" cx="686" cy="536" fill="hsl(260, 50%, 50%)" opacity="0.30"></circle><circle r="15" cx="569" cy="200" fill="hsl(216, 50%, 50%)" opacity="0.12"></circle><circle r="12.5" cx="1190" cy="173" stroke-width="2" stroke="hsl(125, 50%, 50%)" fill="none" opacity="0.96"></circle><circle r="18.5" cx="810" cy="422" fill="hsl(271, 50%, 50%)" opacity="0.45"></circle><circle r="17" cx="899" cy="341" stroke-width="2" stroke="hsl(237, 50%, 50%)" fill="none" opacity="0.81"></circle><circle r="10.5" cx="366" cy="682" stroke-width="2" stroke="hsl(85, 50%, 50%)" fill="none" opacity="0.36"></circle><circle r="11.5" cx="1143" cy="215" fill="hsl(117, 50%, 50%)" opacity="0.63"></circle><circle r="12" cx="423" cy="48" stroke-width="2" stroke="hsl(154, 50%, 50%)" fill="none" opacity="0.61"></circle><circle r="9.5" cx="365" cy="300" stroke-width="2" stroke="hsl(85, 50%, 50%)" fill="none" opacity="0.88"></circle><circle r="11" cx="1092" cy="203" stroke-width="2" stroke="hsl(127, 50%, 50%)" fill="none" opacity="0.66"></circle><circle r="16" cx="613" cy="763" stroke-width="2" stroke="hsl(237, 50%, 50%)" fill="none" opacity="0.51"></circle><circle r="12.5" cx="1196" cy="41" fill="hsl(172, 50%, 50%)" opacity="0.16"></circle><circle r="14" cx="1395" cy="464" fill="hsl(203, 50%, 50%)" opacity="0.84"></circle><circle r="7" cx="129" cy="726" stroke-width="2" stroke="hsl(34, 50%, 50%)" fill="none" opacity="0.30"></circle><circle r="11.5" cx="1253" cy="647" stroke-width="2" stroke="hsl(134, 50%, 50%)" fill="none" opacity="0.47"></circle><circle r="7" cx="144" cy="622" stroke-width="2" stroke="hsl(29, 50%, 50%)" fill="none" opacity="0.68"></circle><circle r="9" cx="91" cy="208" stroke-width="2" stroke="hsl(41, 50%, 50%)" fill="none" opacity="0.76"></circle><circle r="9" cx="83" cy="616" stroke-width="2" stroke="hsl(49, 50%, 50%)" fill="none" opacity="0.77"></circle><circle r="16.5" cx="1391" cy="766" stroke-width="2" stroke="hsl(203, 50%, 50%)" fill="none" opacity="0.77"></circle><circle r="13" cx="969" cy="730" stroke-width="2" stroke="hsl(197, 50%, 50%)" fill="none" opacity="0.99"></circle><circle r="12.5" cx="1272" cy="436" fill="hsl(143, 50%, 50%)" opacity="0.44"></circle><circle r="9" cx="214" cy="131" fill="hsl(34, 50%, 50%)" opacity="0.86"></circle><circle r="15.5" cx="608" cy="161" fill="hsl(243, 50%, 50%)" opacity="0.83"></circle><circle r="9.5" cx="266" cy="92" stroke-width="2" stroke="hsl(45, 50%, 50%)" fill="none" opacity="0.26"></circle><circle r="14.5" cx="1348" cy="146" stroke-width="2" stroke="hsl(178, 50%, 50%)" fill="none" opacity="0.33"></circle><circle r="14.5" cx="513" cy="188" stroke-width="2" stroke="hsl(190, 50%, 50%)" fill="none" opacity="0.78"></circle><circle r="13.5" cx="503" cy="768" fill="hsl(176, 50%, 50%)" opacity="0.68"></circle><circle r="14.5" cx="972" cy="259" fill="hsl(197, 50%, 50%)" opacity="0.70"></circle><circle r="11.5" cx="1147" cy="714" stroke-width="2" stroke="hsl(117, 50%, 50%)" fill="none" opacity="0.35"></circle><circle r="9.5" cx="327" cy="553" fill="hsl(60, 50%, 50%)" opacity="0.42"></circle><circle r="10.5" cx="89" cy="26" fill="hsl(122, 50%, 50%)" opacity="0.22"></circle><circle r="14" cx="1030" cy="81" fill="hsl(212, 50%, 50%)" opacity="0.46"></circle><circle r="16" cx="925" cy="116" stroke-width="2" stroke="hsl(252, 50%, 50%)" fill="none" opacity="0.44"></circle><circle r="15" cx="921" cy="629" stroke-width="2" stroke="hsl(225, 50%, 50%)" fill="none" opacity="0.35"></circle><circle r="13" cx="1138" cy="87" stroke-width="2" stroke="hsl(166, 50%, 50%)" fill="none" opacity="0.68"></circle><circle r="17.5" cx="830" cy="74" fill="hsl(294, 50%, 50%)" opacity="0.53"></circle><circle r="11" cx="388" cy="561" fill="hsl(99, 50%, 50%)" opacity="0.29"></circle><circle r="9" cx="270" cy="169" stroke-width="2" stroke="hsl(41, 50%, 50%)" fill="none" opacity="0.33"></circle><circle r="12.5" cx="1324" cy="773" stroke-width="2" stroke="hsl(165, 50%, 50%)" fill="none" opacity="0.20"></circle><circle r="11" cx="1111" cy="313" fill="hsl(127, 50%, 50%)" opacity="0.65"></circle><circle r="12.5" cx="1008" cy="460" stroke-width="2" stroke="hsl(169, 50%, 50%)" fill="none" opacity="0.17"></circle><circle r="14.5" cx="527" cy="245" fill="hsl(190, 50%, 50%)" opacity="0.61"></circle><circle r="13.5" cx="1099" cy="27" stroke-width="2" stroke="hsl(198, 50%, 50%)" fill="none" opacity="0.95"></circle><circle r="15" cx="943" cy="65" fill="hsl(263, 50%, 50%)" opacity="0.23"></circle><circle r="13" cx="31" cy="105" stroke-width="2" stroke="hsl(108, 50%, 50%)" fill="none" opacity="0.52"></circle><circle r="9.5" cx="157" cy="102" stroke-width="2" stroke="hsl(44, 50%, 50%)" fill="none" opacity="0.19"></circle><circle r="11.5" cx="1062" cy="557" stroke-width="2" stroke="hsl(145, 50%, 50%)" fill="none" opacity="0.58"></circle><circle r="11.5" cx="1119" cy="482" fill="hsl(121, 50%, 50%)" opacity="0.29"></circle><circle r="9.5" cx="328" cy="478" fill="hsl(60, 50%, 50%)" opacity="0.42"></circle><circle r="7.5" cx="134" cy="569" stroke-width="2" stroke="hsl(29, 50%, 50%)" fill="none" opacity="0.20"></circle><circle r="16" cx="554" cy="82" stroke-width="2" stroke="hsl(230, 50%, 50%)" fill="none" opacity="0.73"></circle><circle r="17" cx="840" cy="165" stroke-width="2" stroke="hsl(272, 50%, 50%)" fill="none" opacity="0.71"></circle><circle r="18" cx="769" cy="73" stroke-width="2" stroke="hsl(298, 50%, 50%)" fill="none" opacity="0.93"></circle><circle r="11" cx="1044" cy="181" fill="hsl(145, 50%, 50%)" opacity="0.74"></circle><circle r="15.5" cx="912" cy="462" fill="hsl(225, 50%, 50%)" opacity="0.17"></circle><circle r="14" cx="937" cy="680" stroke-width="2" stroke="hsl(211, 50%, 50%)" fill="none" opacity="0.13"></circle><circle r="18" cx="905" cy="278" stroke-width="2" stroke="hsl(237, 50%, 50%)" fill="none" opacity="0.76"></circle><circle r="11.5" cx="1169" cy="451" stroke-width="2" stroke="hsl(116, 50%, 50%)" fill="none" opacity="0.60"></circle><circle r="13.5" cx="1083" cy="78" fill="hsl(190, 50%, 50%)" opacity="0.48"></circle><circle r="9.5" cx="310" cy="28" fill="hsl(79, 50%, 50%)" opacity="0.68"></circle><circle r="16" cx="850" cy="378" stroke-width="2" stroke="hsl(258, 50%, 50%)" fill="none" opacity="0.92"></circle><circle r="15" cx="713" cy="678" stroke-width="2" stroke="hsl(270, 50%, 50%)" fill="none" opacity="0.73"></circle><circle r="17" cx="739" cy="119" stroke-width="2" stroke="hsl(289, 50%, 50%)" fill="none" opacity="0.65"></circle><circle r="16" cx="892" cy="410" stroke-width="2" stroke="hsl(237, 50%, 50%)" fill="none" opacity="0.68"></circle><circle r="12" cx="1399" cy="382" stroke-width="2" stroke="hsl(203, 50%, 50%)" fill="none" opacity="0.37"></circle><circle r="16.5" cx="801" cy="597" fill="hsl(271, 50%, 50%)" opacity="0.57"></circle><circle r="15.5" cx="555" cy="139" fill="hsl(216, 50%, 50%)" opacity="0.89"></circle><circle r="11.5" cx="383" cy="107" stroke-width="2" stroke="hsl(112, 50%, 50%)" fill="none" opacity="0.79"></circle><circle r="13" cx="1281" cy="319" fill="hsl(143, 50%, 50%)" opacity="0.71"></circle><circle r="17.5" cx="812" cy="219" fill="hsl(271, 50%, 50%)" opacity="0.80"></circle><circle r="15.5" cx="904" cy="516" stroke-width="2" stroke="hsl(237, 50%, 50%)" fill="none" opacity="0.17"></circle><circle r="13.5" cx="1337" cy="719" fill="hsl(178, 50%, 50%)" opacity="0.57"></circle><circle r="12.5" cx="402" cy="362" fill="hsl(114, 50%, 50%)" opacity="0.48"></circle><circle r="11.5" cx="1085" cy="264" stroke-width="2" stroke="hsl(135, 50%, 50%)" fill="none" opacity="0.67"></circle><circle r="10" cx="28" cy="439" fill="hsl(70, 50%, 50%)" opacity="0.43"></circle><circle r="9" cx="252" cy="27" fill="hsl(68, 50%, 50%)" opacity="0.72"></circle><circle r="14.5" cx="498" cy="132" stroke-width="2" stroke="hsl(191, 50%, 50%)" fill="none" opacity="0.48"></circle><circle r="12.5" cx="1311" cy="388" fill="hsl(154, 50%, 50%)" opacity="0.87"></circle><circle r="12.5" cx="1061" cy="451" stroke-width="2" stroke="hsl(145, 50%, 50%)" fill="none" opacity="0.26"></circle><circle r="13" cx="1243" cy="143" fill="hsl(138, 50%, 50%)" opacity="0.17"></circle><circle r="14.5" cx="1394" cy="250" stroke-width="2" stroke="hsl(203, 50%, 50%)" fill="none" opacity="0.87"></circle><circle r="10.5" cx="1209" cy="678" fill="hsl(120, 50%, 50%)" opacity="0.62"></circle><circle r="14.5" cx="490" cy="75" stroke-width="2" stroke="hsl(200, 50%, 50%)" fill="none" opacity="0.50"></circle><circle r="14.5" cx="500" cy="589" stroke-width="2" stroke="hsl(176, 50%, 50%)" fill="none" opacity="0.69"></circle><circle r="9.5" cx="334" cy="77" fill="hsl(88, 50%, 50%)" opacity="0.65"></circle><circle r="11" cx="366" cy="766" stroke-width="2" stroke="hsl(85, 50%, 50%)" fill="none" opacity="0.27"></circle><circle r="13" cx="1295" cy="549" stroke-width="2" stroke="hsl(154, 50%, 50%)" fill="none" opacity="0.82"></circle><circle r="9.5" cx="28" cy="711" fill="hsl(70, 50%, 50%)" opacity="0.86"></circle><circle r="14.5" cx="502" cy="657" stroke-width="2" stroke="hsl(176, 50%, 50%)" fill="none" opacity="0.93"></circle><circle r="12.5" cx="1398" cy="537" fill="hsl(203, 50%, 50%)" opacity="0.39"></circle><circle r="15.5" cx="885" cy="774" stroke-width="2" stroke="hsl(249, 50%, 50%)" fill="none" opacity="0.94"></circle><circle r="9" cx="314" cy="705" stroke-width="2" stroke="hsl(60, 50%, 50%)" fill="none" opacity="0.39"></circle><circle r="8.5" cx="207" cy="408" fill="hsl(26, 50%, 50%)" opacity="0.44"></circle><circle r="9" cx="94" cy="144" fill="hsl(50, 50%, 50%)" opacity="0.96"></circle><circle r="16.5" cx="744" cy="25" stroke-width="2" stroke="hsl(298, 50%, 50%)" fill="none" opacity="0.93"></circle><circle r="11.5" cx="1149" cy="271" fill="hsl(117, 50%, 50%)" opacity="0.88"></circle><circle r="12" cx="990" cy="634" stroke-width="2" stroke="hsl(183, 50%, 50%)" fill="none" opacity="0.19"></circle><circle r="9" cx="322" cy="415" stroke-width="2" stroke="hsl(60, 50%, 50%)" fill="none" opacity="0.75"></circle><circle r="11" cx="1245" cy="23" stroke-width="2" stroke="hsl(167, 50%, 50%)" fill="none" opacity="0.84"></circle><circle r="15" cx="948" cy="373" fill="hsl(211, 50%, 50%)" opacity="0.44"></circle><circle r="13.5" cx="592" cy="251" stroke-width="2" stroke="hsl(227, 50%, 50%)" fill="none" opacity="0.32"></circle><circle r="13" cx="1018" cy="137" stroke-width="2" stroke="hsl(192, 50%, 50%)" fill="none" opacity="0.38"></circle><circle r="15.5" cx="581" cy="444" fill="hsl(227, 50%, 50%)" opacity="0.73"></circle><circle r="12.5" cx="1397" cy="109" fill="hsl(191, 50%, 50%)" opacity="0.24"></circle><circle r="11" cx="30" cy="307" stroke-width="2" stroke="hsl(70, 50%, 50%)" fill="none" opacity="0.82"></circle><circle r="11.5" cx="1073" cy="610" fill="hsl(135, 50%, 50%)" opacity="0.36"></circle><circle r="16" cx="685" cy="633" stroke-width="2" stroke="hsl(260, 50%, 50%)" fill="none" opacity="0.42"></circle><circle r="12" cx="458" cy="331" fill="hsl(146, 50%, 50%)" opacity="0.90"></circle><circle r="18" cx="802" cy="486" stroke-width="2" stroke="hsl(271, 50%, 50%)" fill="none" opacity="0.99"></circle><circle r="7.5" cx="229" cy="538" stroke-width="2" stroke="hsl(29, 50%, 50%)" fill="none" opacity="0.50"></circle><circle r="18.5" cx="646" cy="703" stroke-width="2" stroke="hsl(254, 50%, 50%)" fill="none" opacity="0.97"></circle><circle r="16.5" cx="985" cy="29" stroke-width="2" stroke="hsl(248, 50%, 50%)" fill="none" opacity="0.50"></circle><circle r="18.5" cx="848" cy="539" fill="hsl(258, 50%, 50%)" opacity="0.60"></circle><circle r="17" cx="842" cy="716" fill="hsl(265, 50%, 50%)" opacity="0.65"></circle><circle r="7.5" cx="200" cy="655" fill="hsl(25, 50%, 50%)" opacity="0.83"></circle><circle r="10" cx="150" cy="31" fill="hsl(85, 50%, 50%)" opacity="0.92"></circle><circle r="11" cx="1158" cy="657" fill="hsl(116, 50%, 50%)" opacity="0.63"></circle><circle r="9.5" cx="27" cy="580" stroke-width="2" stroke="hsl(70, 50%, 50%)" fill="none" opacity="0.46"></circle><circle r="12" cx="1279" cy="495" stroke-width="2" stroke="hsl(143, 50%, 50%)" fill="none" opacity="0.48"></circle><circle r="18" cx="747" cy="328" stroke-width="2" stroke="hsl(273, 50%, 50%)" fill="none" opacity="0.96"></circle><circle r="11.5" cx="1345" cy="24" fill="hsl(173, 50%, 50%)" opacity="0.30"></circle><circle r="13.5" cx="962" cy="157" fill="hsl(207, 50%, 50%)" opacity="0.52"></circle><circle r="13.5" cx="1080" cy="133" fill="hsl(169, 50%, 50%)" opacity="0.64"></circle><circle r="8.5" cx="26" cy="772" fill="hsl(70, 50%, 50%)" opacity="0.81"></circle><circle r="13.5" cx="484" cy="713" fill="hsl(161, 50%, 50%)" opacity="0.45"></circle><circle r="17" cx="694" cy="307" stroke-width="2" stroke="hsl(266, 50%, 50%)" fill="none" opacity="0.75"></circle><circle r="16.5" cx="707" cy="72" fill="hsl(290, 50%, 50%)" opacity="0.96"></circle><circle r="9.5" cx="90" cy="276" stroke-width="2" stroke="hsl(41, 50%, 50%)" fill="none" opacity="0.98"></circle><circle r="7" cx="139" cy="673" fill="hsl(29, 50%, 50%)" opacity="0.98"></circle><circle r="14" cx="544" cy="404" fill="hsl(204, 50%, 50%)" opacity="0.75"></circle><circle r="13" cx="1397" cy="180" fill="hsl(203, 50%, 50%)" opacity="0.91"></circle><circle r="17.5" cx="619" cy="647" fill="hsl(237, 50%, 50%)" opacity="0.11"></circle><circle r="15.5" cx="859" cy="24" stroke-width="2" stroke="hsl(293, 50%, 50%)" fill="none" opacity="0.87"></circle><circle r="10.5" cx="1209" cy="296" fill="hsl(120, 50%, 50%)" opacity="0.26"></circle><circle r="9" cx="212" cy="205" stroke-width="2" stroke="hsl(26, 50%, 50%)" fill="none" opacity="0.78"></circle><circle r="11.5" cx="1115" cy="424" fill="hsl(121, 50%, 50%)" opacity="0.85"></circle><circle r="9.5" cx="1193" cy="777" fill="hsl(117, 50%, 50%)" opacity="0.14"></circle><circle r="13.5" cx="576" cy="297" stroke-width="2" stroke="hsl(216, 50%, 50%)" fill="none" opacity="0.62"></circle><circle r="11.5" cx="31" cy="172" stroke-width="2" stroke="hsl(76, 50%, 50%)" fill="none" opacity="0.83"></circle><circle r="15.5" cx="904" cy="724" stroke-width="2" stroke="hsl(237, 50%, 50%)" fill="none" opacity="0.29"></circle><circle r="9.5" cx="304" cy="769" fill="hsl(50, 50%, 50%)" opacity="0.46"></circle><circle r="12.5" cx="1298" cy="239" stroke-width="2" stroke="hsl(154, 50%, 50%)" fill="none" opacity="0.56"></circle><circle r="14" cx="442" cy="471" stroke-width="2" stroke="hsl(130, 50%, 50%)" fill="none" opacity="0.43"></circle><circle r="11.5" cx="1169" cy="391" fill="hsl(116, 50%, 50%)" opacity="0.80"></circle><circle r="13" cx="1023" cy="292" stroke-width="2" stroke="hsl(156, 50%, 50%)" fill="none" opacity="0.53"></circle><circle r="8.5" cx="265" cy="438" fill="hsl(34, 50%, 50%)" opacity="0.21"></circle><circle r="15.5" cx="676" cy="115" stroke-width="2" stroke="hsl(277, 50%, 50%)" fill="none" opacity="0.75"></circle><circle r="11.5" cx="438" cy="773" stroke-width="2" stroke="hsl(130, 50%, 50%)" fill="none" opacity="0.86"></circle></svg>